<?xml version="1.0" encoding="utf-8"?>
<!-- Generator: Adobe Illustrator 26.0.2, SVG Export Plug-In . SVG Version: 6.00 Build 0)  -->
<svg version="1.1" id="Layer_2_00000075841800508190819170000016956597474283797927_"
	 xmlns="http://www.w3.org/2000/svg" xmlns:xlink="http://www.w3.org/1999/xlink" x="0px" y="0px" viewBox="0 0 200 200"
	 style="enable-background:new 0 0 200 200;" xml:space="preserve">
<style type="text/css">
	.st0{fill:#FFFFFF;}
	.st1{fill:#8B8B8B;}
</style>
<g id="Layer_1_00000122691199923857313700000004013589023242396051_">
	<g>
		<circle class="st0" cx="100" cy="100" r="100"/>
	</g>
</g>
<path class="st1" d="M163.42,122.52l-18.35-61.15c-0.74-2.5-2.58-4.52-4.99-5.51l-0.29,0.09l0.3-0.1
	c-6.02-2.46-12.27-4.32-18.65-5.57c-2.34-0.47-4.61,1.05-5.08,3.39s1.05,4.61,3.39,5.08l0,0c2.42,0.48,4.79,1.05,7.12,1.7
	c2.13,1.05,3.01,3.64,1.96,5.77c-0.81,1.63-2.55,2.58-4.36,2.37c-16.51-4.24-33.83-4.28-50.36-0.1c-2.32,0.57-4.65-0.85-5.22-3.16
	c-0.48-1.94,0.44-3.96,2.22-4.87l0.02,0.01c2.32-0.65,4.7-1.22,7.13-1.7c2.34-0.47,3.86-2.74,3.39-5.08
	c-0.47-2.34-2.74-3.86-5.08-3.39c-6.38,1.25-12.63,3.11-18.65,5.57c-2.41,0.99-4.24,3.01-4.99,5.51l-18.35,61.14
	c-0.97,3.27,0.06,6.8,2.64,9.03c0.52,0.45,1.04,0.89,1.58,1.32c0.01,0.01,0.02,0.02,0.04,0.03c8.76,7.11,20.25,12.54,33.22,15.71
	c2.32,0.57,4.66-0.85,5.22-3.17c0.57-2.32-0.85-4.66-3.17-5.22c-5.83-1.4-11.5-3.4-16.92-5.98h0.04c-1.77-1.6-1.9-4.33-0.3-6.1
	c1.25-1.38,3.24-1.8,4.94-1.05c10.25,4.57,23.13,7.4,37.14,7.4s26.9-2.84,37.15-7.41c2.18-0.96,4.73,0.04,5.69,2.22
	c0.75,1.7,0.32,3.69-1.05,4.93h0.04c-5.42,2.57-11.09,4.57-16.92,5.98c-2.32,0.57-3.74,2.9-3.17,5.22s2.9,3.74,5.22,3.17l0,0
	c12.97-3.17,24.46-8.6,33.22-15.71c0.01-0.01,0.02-0.02,0.04-0.03l0,0c0.54-0.44,1.06-0.88,1.58-1.32
	C163.36,129.32,164.39,125.79,163.42,122.52z M81.72,115.06c-3.58,0-6.48-2.9-6.48-6.48s2.9-6.48,6.48-6.48s6.48,2.9,6.48,6.48
	C88.2,112.16,85.3,115.06,81.72,115.06z M116.28,115.06c-3.58,0-6.48-2.9-6.48-6.48s2.9-6.48,6.48-6.48s6.48,2.9,6.48,6.48
	S119.86,115.06,116.28,115.06z"/>
</svg>
