<?xml version="1.0" encoding="utf-8"?>
<!-- Generator: Adobe Illustrator 26.0.2, SVG Export Plug-In . SVG Version: 6.00 Build 0)  -->
<svg version="1.1" id="Layer_2" xmlns="http://www.w3.org/2000/svg" xmlns:xlink="http://www.w3.org/1999/xlink" x="0px" y="0px"
	 viewBox="0 0 200 200" style="enable-background:new 0 0 200 200;" xml:space="preserve">
<style type="text/css">
	.st0{fill:#FFFFFF;}
	.st1{fill:#8B8B8B;}
</style>
<g id="Layer_1_00000122691199923857313700000004013589023242396051_">
	<g>
		<circle class="st0" cx="100" cy="100" r="100"/>
	</g>
</g>
<g id="Layer_3">
	<g>
		<circle class="st1" cx="99" cy="99.5" r="18"/>
		<path class="st1" d="M123.75,43.25h-49.5c-17.39,0.02-31.48,14.11-31.5,31.5v49.5c0.02,17.39,14.11,31.48,31.5,31.5h49.5
			c17.39-0.02,31.48-14.11,31.5-31.5v-49.5C155.23,57.36,141.14,43.27,123.75,43.25z M99,126.5c-14.91,0-27-12.09-27-27
			s12.09-27,27-27s27,12.09,27,27C125.98,114.4,113.9,126.48,99,126.5z M128.25,77c-3.73,0-6.75-3.02-6.75-6.75s3.02-6.75,6.75-6.75
			c3.73,0,6.75,3.02,6.75,6.75S131.98,77,128.25,77z"/>
	</g>
</g>
</svg>
