<?xml version="1.0" encoding="utf-8"?>
<!-- Generator: Adobe Illustrator 26.0.2, SVG Export Plug-In . SVG Version: 6.00 Build 0)  -->
<svg version="1.1" id="Layer_1" xmlns="http://www.w3.org/2000/svg" xmlns:xlink="http://www.w3.org/1999/xlink" x="0px" y="0px"
	 viewBox="0 0 200 200" style="enable-background:new 0 0 200 200;" xml:space="preserve">
<style type="text/css">
	.st0{fill:#FFFFFF;}
	.st1{fill:#8B8B8B;}
</style>
<g id="Layer_1_00000031915500098669032370000007474912673631356854_">
	<g>
		<circle class="st0" cx="100" cy="100" r="100"/>
	</g>
</g>
<path class="st1" d="M78.78,145.28H58.35v-65.8h20.43V145.28z M70.8,70.29c-8.1,1.52-15.08-5.42-13.96-13.44
	c0.76-5.38,5.25-9.61,10.67-10.08c7.76-0.67,14.13,6.16,12.67,14.04C79.31,65.56,75.54,69.4,70.8,70.29z M155.26,145.28h-20.39
	v-32.03c0-7.63-0.15-17.42-10.62-17.42c-10.62,0-12.25,8.29-12.25,16.87v32.58H91.58v-65.8h19.6v8.98h0.29
	c2.73-5.17,9.39-10.63,19.33-10.63c20.68,0,24.48,13.62,24.48,31.31v36.15H155.26z"/>
</svg>
