<?xml version="1.0" encoding="utf-8"?>
<!-- Generator: Adobe Illustrator 26.0.2, SVG Export Plug-In . SVG Version: 6.00 Build 0)  -->
<svg version="1.1" xmlns="http://www.w3.org/2000/svg" xmlns:xlink="http://www.w3.org/1999/xlink" x="0px" y="0px"
	 viewBox="0 0 200 200" style="enable-background:new 0 0 200 200;" xml:space="preserve">
<style type="text/css">
	.st0{fill:#FFFFFF;}
	.st1{fill:#8B8B8B;}
</style>
<g id="Layer_1">
	<g>
		<circle class="st0" cx="100" cy="100" r="100"/>
	</g>
</g>
<g id="Layer_2">
	<path class="st1" d="M154.71,74.89c0.09,1.19,0.09,2.39,0.09,3.58c0,36.41-27.72,78.37-78.37,78.37c-15.61,0-30.1-4.52-42.3-12.37
		c2.22,0.26,4.35,0.34,6.65,0.34c12.88,0,24.73-4.35,34.2-11.77c-12.11-0.26-22.26-8.19-25.75-19.1c1.71,0.26,3.41,0.43,5.2,0.43
		c2.47,0,4.95-0.34,7.25-0.94c-12.62-2.56-22.09-13.64-22.09-27.03v-0.34c3.67,2.05,7.93,3.33,12.45,3.5
		c-7.42-4.95-12.28-13.39-12.28-22.94c0-5.12,1.36-9.81,3.75-13.9c13.56,16.71,33.94,27.63,56.8,28.82
		c-0.43-2.05-0.68-4.18-0.68-6.31c0-15.18,12.28-27.55,27.55-27.55c7.93,0,15.09,3.33,20.13,8.7c6.23-1.19,12.19-3.5,17.48-6.65
		c-2.05,6.4-6.4,11.77-12.11,15.18c5.54-0.6,10.92-2.13,15.86-4.26C164.77,66.11,160.08,70.97,154.71,74.89L154.71,74.89z"/>
</g>
</svg>
