<?xml version="1.0" encoding="utf-8"?>
<!-- Generator: Adobe Illustrator 26.0.2, SVG Export Plug-In . SVG Version: 6.00 Build 0)  -->
<svg version="1.1" id="Layer_1" xmlns="http://www.w3.org/2000/svg" xmlns:xlink="http://www.w3.org/1999/xlink" x="0px" y="0px"
	 viewBox="0 0 200 200" style="enable-background:new 0 0 200 200;" xml:space="preserve">
<style type="text/css">
	.st0{fill:#FFFFFF;}
	.st1{fill:#8B8B8B;}
</style>
<g id="Layer_1_00000122691199923857313700000004013589023242396051_">
	<g>
		<circle class="st0" cx="100" cy="100" r="100"/>
	</g>
</g>
<path class="st1" d="M164.41,66.52c-1.57-5.91-6.2-10.57-12.07-12.15C141.7,51.5,99,51.5,99,51.5s-42.69,0-53.34,2.87
	c-5.87,1.58-10.5,6.24-12.07,12.15c-2.85,10.72-2.85,33.08-2.85,33.08s0,22.36,2.85,33.08c1.57,5.91,6.2,10.38,12.07,11.96
	C56.31,147.5,99,147.5,99,147.5s42.69,0,53.34-2.87c5.87-1.58,10.5-6.04,12.07-11.96c2.85-10.72,2.85-33.08,2.85-33.08
	S167.27,77.24,164.41,66.52z M85.04,119.9V79.3l35.68,20.3L85.04,119.9L85.04,119.9z"/>
</svg>
